<?xml version="1.0" encoding="UTF-8"?>
<svg version="1.1" viewBox="0 0 2000 2000" width="500" height="500" xmlns="http://www.w3.org/2000/svg">
<path transform="translate(0)" d="m0 0h2e3v2e3h-2e3z" fill="#22577A"/>
<path transform="translate(757,754)" d="m0 0h494l11 2 9 8 4 9v28l-3 10-6 9-7 6-14 6-15 5-13 4-6 3-5 10-3 8 1 6 16 32 4 11v15l-4 9-9 10-12 13-7 6-9 11-7 7-11 8-8 3h-5-3l-7-1-17-7-25-13-6-1-15 6-5 5-15 45-8 9-12 6-5 1h-66l-9-2-10-5-7-8-5-12-8-27-4-10-10-5-7-2h-7l-29 15-8 4-6 2h-14l-14-7-10-9-8-8-7-8-7-7v-2l-4-2-8-8-7-9-3-10v-10l5-14 10-19 6-13v-7l-7-16-10-4-31-11-10-5-7-6-6-12-2-15 1-18 4-8 9-8 5-2z" fill="#FEFEFE"/>
<path transform="translate(994,482)" d="m0 0h10l16 3 13 5 11 7 10 9 6 9 6 13 4 15v20l-5 18-5 11 1 5 5 6 8 7 7 8 3-1 5-5 4-3-1-6-5-11-3-11-1-7v-9l3-15 6-14 8-10 8-8 11-7 9-4 9-2h23l15 4 10 6 10 9 7 8 5 8 5 14 2 9v13l-4 16-7 14v2l8 6 5 5 8 9 6 12v7l-6 8-4 2h-9l-8-7-12-14-9-8-5 1-12 4-5 1h-20l-16-4-2-1h-7l-7 6-5 5-5 6v7l3 15 2 33 7-1 102 1 1-22 4-6 4-3h11l6 4 4 8v24l-3 10-6 8-8 4-5 1h-440l-9-3-8-7-4-8-1-9 1-32 4-17 9-19 9-12 6-7 8-6h2l-4-10-6-16-1-6v-13l3-14 5-12 8-11 10-10 11-7 11-4 5-1h22l13 3 15 8 12 11 7 10 5 11 3 11v21l-4 13-6 14 11 11 4-2 12-13 7-6-1-6-7-19-3-15 1-14 4-15 4-11 8-11 11-10 9-6 13-5z" fill="#FEFEFE"/>
<path transform="translate(1170,782)" d="m0 0h35l41 1 1 10-2 8-6 4-15 5-16 4-10 4-6 4-6 8-9 22-2 8v9l4 12 12 26 4 8 1 5-9 10-5 6-8 7-13 13-9 8-7-1-24-13-14-6-9-2-11 1-13 5-10 4-10 9-7 14-12 35-2 4-2 1h-61l-4-4-6-16-8-24-7-12-8-6-13-6-11-4h-16l-13 5-19 10-10 5-7 1-15-14-14-14-6-5-7-10v-7l12-26 6-14 1-4v-13l-8-21-6-11-3-3v-2l-5-2-16-5-14-4-16-7-3-5v-10l1-4h115l12 36 8 16 8 12 9 11 11 10 16 11 10 6 18 7 17 4 7 1h28l18-3 18-6 14-7 14-10 10-9 8-7 8-10 8-12 9-20 5-15 3-14 1-1z" fill="#22577A"/>
<path transform="translate(657,786)" d="m0 0 14 1 12 4 10 7 9 9 7 12 3 11v12l-1 7v9l18 8 9 6 7 8 7 14 2 6v20l-10 64v8l8 14 15 23 12 19 20 30 11 18 8 14 10 15 10 16 7 11 12 20 4 7v4l-30 1-6-8-13-21-8-14-28-44-11-17-14-21-11-17-16-25-8-12-5-6-9-4h-8l-7 2-6 5-4 8v13l4 9 11 20 12 17 13 21 9 14 12 19 8 13 1 8-5 8-5 4-7 1-8-5-8-11-10-16-11-17-15-26-22-33-7-14-3-14 1-13 3-11 7-12 4-6 3-16 8-50 11-72v-7l-4-10-4-5-5-3-4-1h-11l-8 4-5 6-4 11-34 220-3 21-1 13 2 15 6 18 10 18 12 19 3 6v8l-5 8-3 2h-12l-8-8-10-16-9-15-8-17-5-17-2-11v-24l11-74 15-97 12-77 3-10 5-9 10-11 10-7 12-4z" fill="#FEFEFE"/>
<path transform="translate(1336,786)" d="m0 0 13 1 13 4 11 7 8 8 6 10 4 13 9 57 17 110 12 81v23l-3 15-5 16-8 16-14 23-8 12-2 2-33-1 4-8 12-18 12-19 10-19 4-13 2-13v-11l-4-29-8-51-8-53-14-90-4-25-4-10-5-6-7-3h-13l-8 4-6 8-2 6v9l15 98 6 35 3 7 7 11 5 13 1 5v11l-4 16-8 15-10 14-11 17-14 24-12 19-7 11-8 12-7 6-5 1-8-3-5-6-2-4 1-6 4-8 14-22 12-19 10-16 10-14 14-24 5-9 1-4v-10l-5-10-8-6-4-1h-9l-8 4-5 5-10 15-11 18-18 27-13 20-12 19-11 17-16 25-11 19-12 19-5 1-27-1 1-6 10-17 32-50 12-21 26-39 7-11 16-25 11-17 2-4v-10l-7-44-3-18v-21l5-13 8-12 9-8 16-7 6-2-1-11v-20l4-12 8-11 8-8 9-6 9-3z" fill="#FEFEFE"/>
<path transform="translate(1027,782)" d="m0 0h32l40 1 1 2-6 21-8 15-12 16-10 10-8 6-16 9-21 6-6 1h-26l-18-4-16-7-14-9-15-15-10-14-8-16-6-20 9-1z" fill="#22577A"/>
<path transform="translate(964,615)" d="m0 0 5 1 13 5 10 2h17l16-4 8-4 5 1 10 8 10 10 8 15 4 12 2 12v27l-26 1h-113l-5-2v-22l2-15 5-15 6-11 9-10 10-8z" fill="#22577A"/>
<path transform="translate(818,627)" d="m0 0 6 1 12 4 5 1h20l12-3 7-3 6 1 5 5 8 7 5 7-1 8-2 7-2 36-2 2h-107l-2-1-1-11 2-18 4-13 7-12 11-12z" fill="#22577A"/>
<path transform="translate(843,1266)" d="m0 0h27l14 2 12 5 8 8 5 10 2 11v9l-2 14-5 10-5 6-10 6-12 3-9 1-39-1-7-2-1-38v-36l1-6 5-1z" fill="#FEFEFE"/>
<path transform="translate(561,1266)" d="m0 0h38l11 3 6 4 5 6 2 5v12l-4 8-5 6 6 2 4 5 2 5v8l-3 8-6 7-8 4-12 2h-22l-32-2-2-5v-75l6-2z" fill="#FEFEFE"/>
<path transform="translate(991,511)" d="m0 0h18l11 4 8 6 8 9 5 11 2 9v10l-5 13-7 10-10 7-9 4-5 1h-15l-11-4-11-8-8-11-4-10v-16l3-10 6-10 7-7 10-6z" fill="#22577A"/>
<path transform="translate(677,1266)" d="m0 0h33l11 2 8 4 5 6 3 7 1 6v8l-2 9-4 6-6 7 9 15 4 7v5h-23l-10-15-5-8v-2h-22v24l-1 1h-22l-1-39v-33l1-8 4-1z" fill="#FEFEFE"/>
<path transform="translate(1430,1268)" d="m0 0h23l2 1v19l-53 1v11h41v17l-1 1h-40v11l51-1 2 1v18l-2 1-52 1h-22l-1-1v-79z" fill="#FEFEFE"/>
<path transform="translate(1057,1268)" d="m0 0h75v20h-54v12l40-1 2 1v18h-42l1 10 53 1 1 7v10l-1 2-75 1-1-1-1-37v-40z" fill="#FEFEFE"/>
<path transform="translate(978,1265)" d="m0 0h11l26 3 7 2v20l-11-1-15-2h-20l-9 3-4 4-3 9v10l3 10 5 4 8 3h24l1-21 1-1h20l2 1v38l-7 2-29 2-20-1-13-4-11-8-5-8-3-12v-20l2-9 6-10 8-7 12-5z" fill="#FEFEFE"/>
<path transform="translate(843,533)" d="m0 0h15l11 4 9 7 7 11 3 10v8l-4 13-7 9-11 8-10 3h-11l-11-4-6-4-7-7-6-12-1-4v-11l4-12 6-8 7-6 8-4z" fill="#22577A"/>
<path transform="translate(1142,533)" d="m0 0h14l10 3 8 6 7 8 4 10 1 13-2 9-5 9-5 6-10 6-11 3h-8l-13-4-9-7-7-10-3-9v-14l5-12 7-8 8-6z" fill="#22577A"/>
<path transform="translate(843,1419)" d="m0 0h312l2 1v10h-315l-1-1v-9z" fill="#FEFEFE"/>
<path transform="translate(1160,1268)" d="m0 0h82l1 1v19l-9 1h-22v58l-1 1h-22l-1-18-1-41h-27l-1-1v-19z" fill="#FEFEFE"/>
<path transform="translate(1268,1268)" d="m0 0h83v20l-6 1h-24l-1 58-1 1-19 1-1-1-1-25v-34h-29l-2-6v-8z" fill="#FEFEFE"/>
<path transform="translate(769,1268)" d="m0 0h22l1 1v79l-21 1-2-1-1-10v-68z" fill="#FEFEFE"/>
<path transform="translate(1294,886)" d="m0 0 2 2 11 67v10l-2 1-16 1-2 2h-3l-4-20-5-30v-14l4-9 8-7z" fill="#22577A"/>
<path transform="translate(706,887)" d="m0 0 8 3 8 7 3 6v16l-6 40-3 10-9-2-14-2 1-12 9-57z" fill="#22577A"/>
<path transform="translate(845,1286)" d="m0 0h25l10 3 5 6 2 7v13l-3 8-6 5-5 2-6 1h-18l-4-1z" fill="#22577A"/>
<path transform="translate(777,1479)" d="m0 0h15l8 2 3 4 1 3v9l-2 5v5l2 2v5l-5 1-6-3-4-6-9-2-1 9-2 2h-5l-2-2-1-8v-16l2-9z" fill="#FEFEFE"/>
<path transform="translate(733,1480)" d="m0 0h29l2 1-2 10-7-2h-13l1 4h12l3 2v6l-2 2h-8l-6-2v4l2 1h14l4-2 2 6-2 4-9 1h-19l-3-3v-29z" fill="#FEFEFE"/>
<path transform="translate(700,1479)" d="m0 0h17l5 2 1 8-5 1-7-2-9-1 1 5h3l5-1 7 4 5 2 1 7-2 7-3 3-6 2h-17l-5-2-1-2v-6l5-1 9 2h9v-4h-8l-9-2-5-5v-9l3-5z" fill="#FCFDFD"/>
<path transform="translate(1269,1479)" d="m0 0h17l5 2v9l-2 1-5-2-14-1 1 4 14 2 7 3v12l-2 4-8 3h-16l-5-2-2-3v-5l3-2 7 3 12-1 1-3h-8l-9-2-5-4v-10l4-6z" fill="#FEFEFE"/>
<path transform="translate(1183,1480)" d="m0 0h30l1 4-2 5h-21v4h16l1 2v6l-2 2-15-1v4h14l6-1 2 1v8l-2 1h-26l-3-2-1-5v-22z" fill="#FEFEFE"/>
<path transform="translate(1229,1479)" d="m0 0h13l7 1 2 2v7l-4 1-5-2h-9l-2 1-1 4h11l10 4 1 1v12l-5 5-5 1h-18l-4-2-1-3v-7h3l8 3 11-1 1-4-2 1-10-1-7-3-4-4 1-9 5-6z" fill="#FEFEFE"/>
<path transform="translate(924,1480)" d="m0 0h7l5 4 10 14 2 1 1-18 1-1h6l2 1 1 6v25l-4 3-7-1-8-9-6-9-1 17-3 2-5-1-1-1-1-20z" fill="#FEFEFE"/>
<path transform="translate(1035,1479)" d="m0 0h10l7 1 2 3v5l-1 1-18-1h-2l2 5h9l10 4 1 2v10l-5 5-5 2h-17l-5-2-2-2v-5l2-2 10 2h11v-4h-9l-8-3-5-6 1-9 4-4z" fill="#FEFEFE"/>
<path transform="translate(979,1479)" d="m0 0h15l6 2v8h-22l-3 4v8l3 5 2 1h10l4-10 3-1 4 2 1 2v12l-3 3-7 1h-15l-6-3-5-6-2-7 1-10 4-6 5-4z" fill="#FEFEFE"/>
<path transform="translate(1063,1480)" d="m0 0h5l2 2 1 20 1 5h11l3-3 1-2 1-21 1-1h6l3 3v21l-3 7-6 4-4 1h-13l-6-3-4-5-1-3v-21z" fill="#FEFEFE"/>
<path transform="translate(1157,1479)" d="m0 0h13l6 2v8h-19l-3 2-1 10 2 5 2 1h9l9-2 2 3v5l-2 2-5 1h-16l-6-3-5-8-1-9 2-9 5-6z" fill="#FEFEFE"/>
<path transform="translate(1120,1479)" d="m0 0h9l7 1 2 3v6h-20l-3 3v12l4 3h10l9-1v7l-2 2-4 1h-16l-6-3-5-6-1-3v-12l3-7 6-5z" fill="#FEFEFE"/>
<path transform="translate(881,1479)" d="m0 0h10l9 1 2 3v5l-1 1h-20l-2 2v13l1 3h13l8-1v7l-2 2-4 1h-15l-8-4-4-7v-14l4-8 5-3z" fill="#FEFEFE"/>
<path transform="translate(679,1286)" d="m0 0h31l4 4v8l-2 4-7 2h-22l-4-2z" fill="#22577A"/>
<path transform="translate(809,1480)" d="m0 0h5l4 5 6 13 1 6 3-2 8-19 3-3h7l-2 9-10 22-5 4-7-1-5-8-8-20z" fill="#FEFEFE"/>
<path transform="translate(567,1286)" d="m0 0h29l5 2 1 7-5 4-9 1h-22l-3-2v-11z" fill="#22577A"/>
<path transform="translate(564,1318)" d="m0 0h28l11 1 1 1v6l-4 4-5 1h-20l-10-2-2-4v-6z" fill="#22577A"/>
<path transform="translate(853,1480)" d="m0 0h6l3 3v30l-1 1h-8l-1-1v-32z" fill="#FEFEFE"/>
<path transform="translate(908,1480)" d="m0 0h7l1 1v33l-2 1h-6l-1-1-1-14 1-19z" fill="#FEFEFE"/>
<path transform="translate(1300,1480)" d="m0 0h8l1 1v15l-2 5-3 2 4 2 1 9-1 1h-7l-1-1v-8l1-4-1-1z" fill="#FEFEFE"/>
<path transform="translate(781,1487)" d="m0 0h11l2 2v5l-2 2h-12l-1-7z" fill="#25597C"/>
</svg>
